<?xml version="1.0" standalone="no"?>
<!DOCTYPE svg PUBLIC "-//W3C//DTD SVG 20010904//EN"
 "http://www.w3.org/TR/2001/REC-SVG-20010904/DTD/svg10.dtd">
<svg version="1.0" xmlns="http://www.w3.org/2000/svg"
 width="2700.000000pt" height="2700.000000pt" viewBox="0 0 2700.000000 2700.000000"
 preserveAspectRatio="xMidYMid meet">
<metadata>
Created by potrace 1.14, written by Peter Selinger 2001-2017
</metadata>
<g transform="translate(0.000000,2700.000000) scale(0.100000,-0.100000)"
fill="#000000" stroke="none">
<path d="M0 13500 l0 -13500 13500 0 13500 0 0 13500 0 13500 -13500 0 -13500
0 0 -13500z m7150 6400 l0 -1000 -735 0 -735 0 0 -4000 0 -4000 -1515 0 -1515
0 0 4000 0 4000 -775 0 -775 0 0 1000 0 1000 3025 0 3025 0 0 -1000z m2480
-3000 l0 -4000 745 0 745 0 0 4000 0 4000 1140 0 1140 0 0 -5000 0 -5000
-3025 0 -3025 0 0 5000 0 5000 1140 0 1140 0 0 -4000z m6700 3123 c232 -483
560 -1165 729 -1515 l306 -638 3 1515 2 1515 1140 0 1140 0 0 -5000 0 -5000
-1154 0 -1154 0 -567 1188 c-312 653 -640 1339 -729 1525 l-161 337 -3 -1525
-2 -1525 -1140 0 -1140 0 0 5000 0 5000 1154 0 1153 0 423 -877z m9570 -123
l0 -1000 -1885 0 -1885 0 0 -1000 0 -1000 1135 0 1135 0 0 -1000 0 -1000
-1135 0 -1135 0 0 -1000 0 -1000 1885 0 1885 0 0 -1000 0 -1000 -3025 0 -3025
0 0 5000 0 5000 3025 0 3025 0 0 -1000z m-11095 -9797 c35 -34 14 -82 -128
-301 -246 -379 -677 -1084 -677 -1107 0 -2 26 6 57 17 149 52 349 64 449 27
72 -27 135 -89 157 -154 24 -68 22 -202 -3 -300 -80 -311 -440 -777 -779
-1005 -88 -59 -253 -136 -331 -154 -36 -9 -97 -16 -136 -16 -60 0 -76 4 -115
28 -191 122 -219 330 -89 682 46 126 144 347 217 495 272 544 994 1698 1096
1752 44 23 162 51 219 52 31 1 52 -5 63 -16z m5990 0 c35 -34 14 -82 -128
-301 -246 -379 -677 -1084 -677 -1107 0 -2 26 6 57 17 149 52 349 64 449 27
72 -27 135 -89 157 -154 24 -68 22 -202 -3 -300 -80 -311 -440 -777 -779
-1005 -88 -59 -253 -136 -331 -154 -36 -9 -97 -16 -136 -16 -60 0 -76 4 -115
28 -191 122 -219 330 -89 682 46 126 144 347 217 495 272 544 994 1698 1096
1752 44 23 162 51 219 52 31 1 52 -5 63 -16z m-17369 -28 c69 -43 94 -91 94
-181 0 -229 -299 -725 -863 -1432 -149 -187 -386 -471 -510 -611 -70 -79 -75
-88 -88 -155 -23 -115 -19 -176 13 -218 56 -73 162 -98 267 -63 78 26 161 85
294 211 235 224 267 226 267 14 0 -123 -5 -135 -102 -232 -127 -129 -261 -212
-428 -269 -122 -41 -305 -53 -391 -25 -111 37 -181 111 -219 234 -35 114 -24
371 25 588 82 360 296 861 517 1214 221 352 563 753 746 874 109 72 152 87
248 84 70 -3 87 -7 130 -33z m21984 -277 c66 -15 115 -66 106 -110 -3 -16 -97
-185 -210 -376 -316 -539 -477 -825 -581 -1033 l-57 -112 53 44 c81 67 293
254 504 443 105 94 209 188 233 209 53 47 85 49 108 6 17 -35 30 -162 20 -203
-4 -17 -46 -57 -124 -120 -294 -236 -643 -554 -864 -788 -118 -125 -145 -160
-212 -278 -90 -155 -167 -261 -237 -324 -70 -63 -104 -76 -197 -76 -66 0 -85
4 -113 23 -49 33 -69 79 -69 162 0 205 126 422 427 735 141 147 152 161 217
285 38 72 94 177 124 235 l56 105 -90 -85 c-198 -190 -297 -263 -410 -306
-144 -54 -296 -13 -340 93 -19 44 -18 187 1 272 24 104 58 166 410 761 35 58
79 138 99 177 61 122 136 242 157 254 35 18 86 1 134 -45 41 -39 45 -47 45
-92 0 -57 -65 -197 -235 -509 -134 -246 -265 -514 -265 -543 0 -20 4 -22 23
-17 74 22 263 179 483 400 204 206 360 390 491 580 173 252 187 262 313 233z
m-17035 -1047 c22 -10 49 -28 59 -40 13 -14 31 -21 55 -21 90 0 167 -43 202
-113 30 -59 23 -201 -16 -307 -91 -249 -277 -521 -526 -768 -134 -133 -255
-223 -394 -292 -133 -66 -204 -83 -325 -78 -84 3 -102 7 -150 34 -65 36 -121
105 -144 176 -21 65 -21 224 0 324 28 139 110 330 197 459 191 285 535 560
787 631 71 19 207 17 255 -5z"/>
<path d="M14165 8438 c-16 -5 -87 -32 -158 -60 -93 -37 -135 -49 -155 -44 -15
4 -34 8 -42 9 -9 1 -58 -86 -150 -268 -143 -285 -203 -431 -222 -544 -10 -61
-10 -72 5 -95 56 -85 277 43 532 305 226 233 345 439 345 597 0 91 -15 112
-78 111 -26 0 -60 -5 -77 -11z"/>
<path d="M20155 8438 c-16 -5 -87 -32 -158 -60 -93 -37 -135 -49 -155 -44 -15
4 -34 8 -42 9 -9 1 -58 -86 -150 -268 -143 -285 -203 -431 -222 -544 -10 -61
-10 -72 5 -95 56 -85 277 43 532 305 226 233 345 439 345 597 0 91 -15 112
-78 111 -26 0 -60 -5 -77 -11z"/>
<path d="M3118 9780 c-108 -89 -484 -593 -661 -885 -43 -71 -100 -175 -126
-230 -53 -111 -165 -395 -158 -401 9 -9 290 363 533 706 314 442 484 730 484
820 0 29 -29 25 -72 -10z"/>
<path d="M8140 8464 c-249 -125 -494 -378 -634 -656 -83 -163 -107 -308 -59
-360 41 -45 177 1 323 111 182 137 431 452 542 687 55 119 52 174 -11 174 -25
0 -51 32 -51 63 0 15 -4 27 -9 27 -5 0 -50 -21 -101 -46z"/>
</g>
</svg>
